<svg width="12" height="12" viewBox="0 0 12 12" fill="none" xmlns="http://www.w3.org/2000/svg">
<path d="M9.49998 3.5C9.49998 3.59 9.49498 3.67499 9.48498 3.75999C9.42498 4.48499 9.10498 5.14 8.61998 5.62C8.07998 6.165 7.32998 6.5 6.49998 6.5H4.93498C4.68498 6.5 4.47499 6.68499 4.43999 6.92999L4.05998 9.57001C4.02998 9.76501 3.88999 9.92501 3.70499 9.97501C3.65999 9.99501 3.61499 10 3.56499 10H2.58998C2.27998 10 2.04498 9.725 2.09498 9.42L3.28998 2.255C3.40998 1.53 4.03499 1 4.76999 1H6.99998C8.37998 1 9.49998 2.12 9.49998 3.5Z" fill="#222222"/>
<path d="M10.5 5.5C10.5 6.19 10.22 6.815 9.77 7.27C9.315 7.72 8.68999 8 7.99999 8H6.92499C6.67999 8 6.46998 8.175 6.42998 8.42L6.07 10.58C6.03 10.825 5.81999 11 5.57499 11H4.10999C4.01999 11 3.93999 10.98 3.86999 10.94C3.75999 10.88 3.82999 10.735 3.94999 10.685C4.39999 10.54 4.72999 10.155 4.79999 9.675L5.11999 7.46499C5.13999 7.33999 5.245 7.25 5.365 7.25H6.49999C7.50499 7.25 8.44999 6.86 9.14999 6.155C9.56499 5.745 9.87498 5.24 10.055 4.695C10.095 4.57 10.26 4.545 10.315 4.66C10.435 4.92 10.5 5.2 10.5 5.5Z" fill="#222222"/>
</svg>
