<svg width="47" height="47" viewBox="0 0 47 47" fill="none" xmlns="http://www.w3.org/2000/svg">
<path d="M31.8229 44.0625C33.7156 44.0625 35.25 42.5282 35.25 40.6354C35.25 38.7427 33.7156 37.2083 31.8229 37.2083C29.9302 37.2083 28.3958 38.7427 28.3958 40.6354C28.3958 42.5282 29.9302 44.0625 31.8229 44.0625Z" fill="#FE552E"/>
<path d="M16.1563 44.0625C18.049 44.0625 19.5834 42.5282 19.5834 40.6354C19.5834 38.7427 18.049 37.2083 16.1563 37.2083C14.2635 37.2083 12.7292 38.7427 12.7292 40.6354C12.7292 42.5282 14.2635 44.0625 16.1563 44.0625Z" fill="#FE552E"/>
<path d="M9.47835 7.71582L9.08669 12.5137C9.00835 13.4342 9.73294 14.1979 10.6534 14.1979H40.6354C41.4579 14.1979 42.1434 13.5712 42.2021 12.7487C42.4567 9.28249 39.8129 6.46249 36.3467 6.46249H12.2788C12.0829 5.60082 11.6913 4.77832 11.0842 4.09291C10.105 3.05499 8.73419 2.44791 7.32419 2.44791H3.91669C3.11377 2.44791 2.44794 3.11374 2.44794 3.91666C2.44794 4.71957 3.11377 5.38541 3.91669 5.38541H7.32419C7.93127 5.38541 8.49919 5.63999 8.91044 6.07082C9.32169 6.52124 9.51752 7.10874 9.47835 7.71582Z" fill="#FE552E"/>
<path d="M40.1654 17.1354H10.1246C9.30211 17.1354 8.63627 17.7621 8.55794 18.565L7.85294 27.0837C7.57877 30.4325 10.2029 33.2917 13.5517 33.2917H35.3284C38.2659 33.2917 40.8509 30.8829 41.0663 27.9454L41.7125 18.8C41.7909 17.8992 41.0859 17.1354 40.1654 17.1354Z" fill="#FE552E"/>
</svg>
