<svg width="27" height="27" viewBox="0 0 27 27" fill="none" xmlns="http://www.w3.org/2000/svg">
<path d="M20.295 15.2437C19.8225 15.705 19.5525 16.3687 19.62 17.0775C19.7213 18.2925 20.835 19.1812 22.05 19.1812H24.1875V20.52C24.1875 22.8487 22.2862 24.75 19.9575 24.75H8.58375C8.9325 24.4575 9.23625 24.0975 9.4725 23.6925C9.88875 23.0175 10.125 22.2188 10.125 21.375C10.125 18.8887 8.11125 16.875 5.625 16.875C4.5675 16.875 3.58875 17.2463 2.8125 17.865V12.9488C2.8125 10.62 4.71375 8.71875 7.0425 8.71875H19.9575C22.2862 8.71875 24.1875 10.62 24.1875 12.9488V14.5688H21.915C21.285 14.5688 20.7113 14.8162 20.295 15.2437Z" stroke="black" stroke-width="1.5" stroke-linecap="round" stroke-linejoin="round"/>
<path d="M2.8125 13.9612V8.82006C2.8125 7.48131 3.63375 6.28876 4.8825 5.81626L13.815 2.44126C15.21 1.91251 16.7062 2.94754 16.7062 4.44379V8.71878" stroke="black" stroke-width="1.5" stroke-linecap="round" stroke-linejoin="round"/>
<path d="M25.3787 15.7164V18.034C25.3787 18.6527 24.8837 19.1589 24.2537 19.1814H22.0487C20.8337 19.1814 19.7199 18.2927 19.6187 17.0777C19.5512 16.3689 19.8212 15.7052 20.2937 15.2439C20.7099 14.8164 21.2837 14.569 21.9137 14.569H24.2537C24.8837 14.5915 25.3787 15.0977 25.3787 15.7164Z" stroke="black" stroke-width="1.5" stroke-linecap="round" stroke-linejoin="round"/>
<path d="M7.875 13.5H15.75" stroke="black" stroke-width="1.5" stroke-linecap="round" stroke-linejoin="round"/>
<path d="M10.125 21.375C10.125 22.2188 9.88875 23.0175 9.4725 23.6925C9.23625 24.0975 8.9325 24.4575 8.58375 24.75C7.79625 25.4587 6.76125 25.875 5.625 25.875C3.9825 25.875 2.55375 24.9975 1.7775 23.6925C1.36125 23.0175 1.125 22.2188 1.125 21.375C1.125 19.9575 1.7775 18.6863 2.8125 17.865C3.58875 17.2463 4.5675 16.875 5.625 16.875C8.11125 16.875 10.125 18.8887 10.125 21.375Z" stroke="black" stroke-width="1.5" stroke-miterlimit="10" stroke-linecap="round" stroke-linejoin="round"/>
<path d="M7.30318 21.3519H3.95068" stroke="black" stroke-width="1.5" stroke-miterlimit="10" stroke-linecap="round" stroke-linejoin="round"/>
<path d="M5.625 19.7095V23.0732" stroke="black" stroke-width="1.5" stroke-miterlimit="10" stroke-linecap="round" stroke-linejoin="round"/>
</svg>
