<svg width="50" height="50" viewBox="0 0 50 50" fill="none" xmlns="http://www.w3.org/2000/svg">
<path d="M44.6875 28.4167V30.5C44.6875 31.0625 44.25 31.5208 43.6667 31.5417H40.625C39.5208 31.5417 38.5208 30.7292 38.4375 29.6458C38.375 29 38.625 28.3958 39.0417 27.9792C39.4167 27.5833 39.9375 27.375 40.5 27.375H43.6458C44.25 27.3958 44.6875 27.8542 44.6875 28.4167Z" fill="#FE552E"/>
<path d="M37.4791 26.4375C36.4375 27.4583 35.9375 28.9792 36.3541 30.5625C36.8958 32.5 38.7916 33.7292 40.7916 33.7292H42.6041C43.75 33.7292 44.6875 34.6667 44.6875 35.8125V36.2083C44.6875 40.5208 41.1666 44.0417 36.8541 44.0417H12.9375C8.62496 44.0417 5.10413 40.5208 5.10413 36.2083V22.1875C5.10413 19.625 6.33329 17.3542 8.22913 15.9375C9.54163 14.9375 11.1666 14.3542 12.9375 14.3542H36.8541C41.1666 14.3542 44.6875 17.875 44.6875 22.1875V23.1042C44.6875 24.25 43.75 25.1875 42.6041 25.1875H40.4791C39.3125 25.1875 38.25 25.6458 37.4791 26.4375Z" fill="#FE552E"/>
<path d="M33.7501 10.0417C34.3126 10.6042 33.8335 11.4792 33.0418 11.4792L17.0418 11.4583C16.1251 11.4583 15.646 10.3333 16.3126 9.68749L19.6876 6.29166C22.5418 3.45832 27.1668 3.45832 30.021 6.29166L33.6668 9.97916C33.6876 9.99999 33.7293 10.0208 33.7501 10.0417Z" fill="#FE552E"/>
</svg>
