<svg width="52" height="52" viewBox="0 0 52 52" fill="none" xmlns="http://www.w3.org/2000/svg">
<path d="M41.3618 27.2783C41.0151 27.2783 40.6684 27.17 40.3651 26.9317C31.6334 20.1933 20.3451 20.1933 11.6135 26.9317C10.8985 27.4733 9.88012 27.3433 9.33845 26.65C8.79678 25.935 8.92678 24.9167 9.62012 24.375C19.5651 16.6833 32.4135 16.6833 42.3368 24.375C43.0518 24.9167 43.1818 25.935 42.6185 26.65C42.3368 27.0617 41.8601 27.2783 41.3618 27.2783Z" fill="#FE552E"/>
<path d="M47.6667 19.7383C47.32 19.7383 46.9734 19.63 46.67 19.3917C34.1034 9.68501 17.875 9.68501 5.33002 19.3917C4.61502 19.9333 3.59668 19.8033 3.05502 19.11C2.49168 18.4167 2.62168 17.3767 3.33668 16.835C17.095 6.19668 34.8833 6.19668 48.6633 16.835C49.3783 17.3767 49.5084 18.395 48.945 19.11C48.6417 19.5217 48.1434 19.7383 47.6667 19.7383Z" fill="#FE552E"/>
<path d="M37.2882 35.1867C36.9416 35.1867 36.5949 35.0783 36.2916 34.84C30.0516 30.0083 21.9699 30.0083 15.7082 34.84C14.9932 35.3817 13.9749 35.2517 13.4332 34.5583C12.8916 33.8433 13.0216 32.825 13.7149 32.2833C21.1682 26.52 30.8099 26.52 38.2632 32.2833C38.9782 32.825 39.1082 33.8433 38.5449 34.5583C38.2416 34.97 37.7649 35.1867 37.2882 35.1867Z" fill="#FE552E"/>
<path d="M31.6335 43.1167C31.2868 43.1167 30.9401 43.0083 30.6368 42.77C27.8201 40.5817 24.1585 40.5817 21.3418 42.77C20.6268 43.3117 19.6085 43.1817 19.0668 42.4883C18.5251 41.7733 18.6551 40.755 19.3485 40.2133C23.3785 37.0933 28.5785 37.0933 32.6085 40.2133C33.3235 40.755 33.4535 41.7733 32.8901 42.4883C32.6085 42.8783 32.1318 43.1167 31.6335 43.1167Z" fill="#FE552E"/>
</svg>
